<svg width="20" height="20" viewBox="0 0 20 20" fill="none" xmlns="http://www.w3.org/2000/svg">
<path d="M7.51999 16.71L13.74 10.15C13.91 9.97 14 9.74 14 9.49C14 9.24 13.91 9 13.74 8.83L7.51999 2.27C7.34999 2.09 7.13001 2 6.89001 2C6.65001 2 6.43001 2.1 6.26001 2.27C6.09001 2.45 6 2.68 6 2.93C6 3.18 6.09001 3.42 6.26001 3.59L11.85 9.49L6.26001 15.39C6.09001 15.57 6 15.8 6 16.05C6 16.3 6.09001 16.54 6.26001 16.71C6.43001 16.89 6.65001 16.98 6.89001 16.98C7.13001 16.98 7.34999 16.88 7.51999 16.71Z" fill="white"/>
</svg>
