<?xml version="1.0" encoding="utf-8"?>
<!-- Generator: Adobe Illustrator 26.0.3, SVG Export Plug-In . SVG Version: 6.00 Build 0)  -->
<svg version="1.1" id="Layer_1" xmlns="http://www.w3.org/2000/svg" xmlns:xlink="http://www.w3.org/1999/xlink" x="0px" y="0px"
	 viewBox="0 0 56.7 56.7" style="enable-background:new 0 0 56.7 56.7;" xml:space="preserve">
<style type="text/css">
	.st0{fill:#FFFFFF;}
</style>
<g>
	<g>
		<path class="st0" d="M49.5,48.7H26c-0.8,0-1.5-0.7-1.5-1.5c0-0.8,0.7-1.5,1.5-1.5h23.5c0.8,0,1.5,0.7,1.5,1.5
			C51,48,50.3,48.7,49.5,48.7z"/>
	</g>
	<g>
		<path class="st0" d="M12.9,48.7C10.2,48.7,8.2,48,8,48c-0.4-0.1-0.7-0.4-0.9-0.8c-0.2-0.3-4-8.6,1.6-14.7l19.1-21.3
			C31.1,7.3,37,7,40.8,10.3c0,0,0,0,0,0c1.9,1.6,3,3.9,3.1,6.4c0.1,2.5-0.7,4.8-2.3,6.7L22.6,44.7C19.7,47.9,15.9,48.7,12.9,48.7z
			 M9.6,45.3c1.9,0.4,7.3,1.2,10.7-2.6l19.1-21.3c1.1-1.2,1.7-2.8,1.6-4.5c-0.1-1.6-0.8-3.2-2.1-4.3c-2.6-2.3-6.6-2-8.8,0.5
			L10.9,34.5C7.5,38.3,8.9,43.5,9.6,45.3z"/>
	</g>
	<g>
		<path class="st0" d="M35.6,28.8c-0.4,0-0.7-0.1-1-0.4L23.8,19c-0.6-0.6-0.7-1.5-0.1-2.1c0.6-0.6,1.5-0.7,2.1-0.1l10.7,9.4
			c0.6,0.6,0.7,1.5,0.1,2.1C36.4,28.6,36,28.8,35.6,28.8z"/>
	</g>
</g>
</svg>
